<svg xmlns="http://www.w3.org/2000/svg" width="20" height="14" viewBox="0 0 20 14" >
<path d="M19.6917 3.60058L15.7895 0L11.8873 3.60058C11.4762 3.97989 11.4762 4.59486 11.8873 4.97416C12.2983 5.35346 12.9648 5.35346 13.3759 4.97416L14.7368 3.71842V9.1437C14.7368 9.68012 15.2081 10.115 15.7895 10.115C16.3708 10.115 16.8421 9.68012 16.8421 9.1437V3.71842L18.203 4.97416C18.6141 5.35346 19.2806 5.35346 19.6917 4.97416C20.1028 4.59486 20.1028 3.97989 19.6917 3.60058Z" />
<path d="M1.05263 2.34481C0.471279 2.34481 0 2.77966 0 3.31608C0 3.85249 0.471279 4.28734 1.05263 4.28734H7.36842C7.94977 4.28734 8.42105 3.85249 8.42105 3.31608C8.42105 2.77966 7.94977 2.34481 7.36842 2.34481H1.05263Z" />
<path d="M1.05263 7.20114C0.471279 7.20114 0 7.63599 0 8.17241C0 8.70882 0.471279 9.14367 1.05263 9.14367H10.5263C11.1077 9.14367 11.5789 8.70882 11.5789 8.17241C11.5789 7.63599 11.1077 7.20114 10.5263 7.20114H1.05263Z" />
<path d="M0 13.0287C0 12.4923 0.471279 12.0575 1.05263 12.0575H13.6842C14.2656 12.0575 14.7368 12.4923 14.7368 13.0287C14.7368 13.5652 14.2656 14 13.6842 14H1.05263C0.471279 14 0 13.5652 0 13.0287Z" />
</svg>