<svg xmlns="http://www.w3.org/2000/svg" width="20" height="20" viewBox="0 0 20 20" fill="none">
<path d="M6 4.5V5.52783C6.16471 5.38051 6.33742 5.24242 6.51732 5.11418C6.92159 4.82601 7.36217 4.58763 7.82995 4.40616C8.93631 3.97697 10.1451 3.8855 11.3034 4.1433C12.4618 4.4011 13.5177 4.9966 14.3376 5.8545C14.6842 6.21723 14.9821 6.61997 15.226 7.05239C15.559 7.64272 15.7913 8.28835 15.9097 8.96299L14.1368 9.27409L14.1364 9.2721C13.9926 8.45468 13.6098 7.69819 13.0363 7.09815C12.4624 6.49762 11.7232 6.08077 10.9124 5.90031C10.1015 5.71985 9.2554 5.78388 8.48095 6.08431C7.94785 6.29112 7.46521 6.60354 7.06057 7H8.5V8H5V4.5H6Z" fill="#019CB0"/>
<path d="M12.3216 13.5L11.0938 13.5L11.0938 12.5L14.5 12.5V16H13.5V14.8734C13.2853 15.0276 13.0607 15.1674 12.8277 15.2919C12.3899 15.5259 11.9223 15.7058 11.4352 15.8258C10.2829 16.1097 9.0724 16.0455 7.95665 15.6414C6.84089 15.2372 5.87003 14.5113 5.16684 13.5554C4.86953 13.1512 4.62571 12.7136 4.43925 12.2535C4.1847 11.6254 4.03705 10.9553 4.0061 10.2711L5.80427 10.1898C5.84191 11.0194 6.12468 11.8198 6.61678 12.4888C7.10902 13.1579 7.78862 13.6661 8.56964 13.949C9.35067 14.2319 10.198 14.2768 11.0046 14.0781C11.4761 13.9619 11.9212 13.7656 12.3216 13.5Z" fill="#019CB0"/>
<path fill-rule="evenodd" clip-rule="evenodd" d="M10 20C15.5228 20 20 15.5228 20 10C20 4.47715 15.5228 0 10 0C4.47715 0 0 4.47715 0 10C0 15.5228 4.47715 20 10 20ZM10 18C14.4183 18 18 14.4183 18 10C18 5.58172 14.4183 2 10 2C5.58172 2 2 5.58172 2 10C2 14.4183 5.58172 18 10 18Z" fill="#019CB0"/>
</svg>