<svg xmlns="http://www.w3.org/2000/svg" width="20" height="20" viewBox="0 0 20 20" >
<mask id="path-1-inside-1_79_5230" fill="white">
<path d="M1.6014 5.51858C0.653493 7.39412 0.325554 9.53067 0.666288 11.6109C1.00702 13.6911 1.99826 15.6041 3.49276 17.0656C4.98727 18.5271 6.90534 19.4593 8.96207 19.7236C11.0188 19.988 13.1045 19.5704 14.9094 18.533C16.7143 17.4955 18.1421 15.8935 18.9807 13.9648C19.8194 12.0362 20.0241 9.88382 19.5646 7.82738C19.105 5.77094 18.0057 3.92014 16.4298 2.54987C14.854 1.1796 12.8857 0.362945 10.8173 0.221208L10.6554 2.66591C12.2067 2.77221 13.6829 3.3847 14.8648 4.4124C16.0467 5.44011 16.8712 6.82821 17.2159 8.37054C17.5605 9.91286 17.407 11.5272 16.778 12.9736C16.149 14.4201 15.0782 15.6216 13.7245 16.3997C12.3708 17.1778 10.8065 17.491 9.264 17.2927C7.72144 17.0945 6.28289 16.3953 5.16201 15.2992C4.04113 14.203 3.29771 12.7683 3.04216 11.2082C2.78661 9.648 3.03256 8.04559 3.74349 6.63894L1.6014 5.51858Z"/>
</mask>
<path d="M1.6014 5.51858C0.653493 7.39412 0.325554 9.53067 0.666288 11.6109C1.00702 13.6911 1.99826 15.6041 3.49276 17.0656C4.98727 18.5271 6.90534 19.4593 8.96207 19.7236C11.0188 19.988 13.1045 19.5704 14.9094 18.533C16.7143 17.4955 18.1421 15.8935 18.9807 13.9648C19.8194 12.0362 20.0241 9.88382 19.5646 7.82738C19.105 5.77094 18.0057 3.92014 16.4298 2.54987C14.854 1.1796 12.8857 0.362945 10.8173 0.221208L10.6554 2.66591C12.2067 2.77221 13.6829 3.3847 14.8648 4.4124C16.0467 5.44011 16.8712 6.82821 17.2159 8.37054C17.5605 9.91286 17.407 11.5272 16.778 12.9736C16.149 14.4201 15.0782 15.6216 13.7245 16.3997C12.3708 17.1778 10.8065 17.491 9.264 17.2927C7.72144 17.0945 6.28289 16.3953 5.16201 15.2992C4.04113 14.203 3.29771 12.7683 3.04216 11.2082C2.78661 9.648 3.03256 8.04559 3.74349 6.63894L1.6014 5.51858Z" stroke="#019CB0" stroke-width="4" stroke-miterlimit="3.8637" stroke-linejoin="round" stroke-dasharray="7 7" mask="url(#path-1-inside-1_79_5230)"/>
<path d="M16.923 7.38478C16.4146 6.02607 15.5215 4.85124 14.3567 4.00886C13.1919 3.16649 11.8077 2.6944 10.3792 2.6523C8.95065 2.61019 7.54191 2.99997 6.33113 3.77233C5.4617 4.32694 4.72239 5.06093 4.15805 5.92185L5.08523 5.67848C5.6577 5.52822 6.24152 5.87851 6.38923 6.46087C6.53694 7.04324 6.1926 7.63714 5.62013 7.7874L0.85352 9.03853L0.0163785 4.19919C-0.0860873 3.60685 0.302874 3.04217 0.885148 2.93794C1.46742 2.8337 2.02251 3.22938 2.12498 3.82171L2.2327 4.44444C2.3112 4.32837 2.39212 4.2141 2.47538 4.10169C3.17911 3.15166 4.05066 2.33492 5.05153 1.69646C6.66591 0.666647 8.54422 0.146949 10.4489 0.203087C12.3537 0.259224 14.1993 0.888676 15.7523 2.01184C16.7152 2.70817 17.5388 3.57488 18.1873 4.56476C18.5848 5.17154 18.9165 5.8246 19.1741 6.51307L16.923 7.38478Z" />
<path d="M15.7441 9.68097C16.1622 9.25569 16.1622 8.56618 15.7441 8.1409C15.3261 7.71562 14.6483 7.71562 14.2302 8.1409L10.8418 11.5879L9.63453 9.86853C8.86555 8.77336 7.31392 8.64272 6.37842 9.59439L5.13097 10.8634C4.71292 11.2887 4.71292 11.9782 5.13097 12.4035C5.54903 12.8287 6.22683 12.8287 6.64489 12.4035L7.89233 11.1345L9.09958 12.8538C9.86856 13.949 11.4202 14.0796 12.3557 13.128L15.7441 9.68097Z" />
</svg>