<svg xmlns="http://www.w3.org/2000/svg" width="20" height="20" viewBox="0 0 20 20" >
<path fill-rule="evenodd" clip-rule="evenodd" d="M0 1C0 0.447715 0.447715 0 1 0H7.57143C8.12371 0 8.57143 0.447715 8.57143 1V8C8.57143 8.55229 8.12371 9 7.57143 9H0.999999C0.447714 9 0 8.55229 0 8V1ZM2 7V2H6.57143V7H2Z" />
<path fill-rule="evenodd" clip-rule="evenodd" d="M0 11.9999C0 11.4477 0.447715 10.9999 1 10.9999H7.57143C8.12371 10.9999 8.57143 11.4477 8.57143 11.9999V18.9999C8.57143 19.5522 8.12371 19.9999 7.57143 19.9999H0.999999C0.447714 19.9999 0 19.5522 0 18.9999V11.9999ZM2 17.9999V12.9999H6.57143V17.9999H2Z" />
<path fill-rule="evenodd" clip-rule="evenodd" d="M12.4286 0C11.8763 0 11.4286 0.447715 11.4286 1V8C11.4286 8.55229 11.8763 9 12.4286 9H19C19.5523 9 20 8.55229 20 8V1C20 0.447715 19.5523 0 19 0H12.4286ZM13.4286 2V7H18V2H13.4286Z" />
<path fill-rule="evenodd" clip-rule="evenodd" d="M11.4286 11.9999C11.4286 11.4477 11.8763 10.9999 12.4286 10.9999H19C19.5523 10.9999 20 11.4477 20 11.9999V18.9999C20 19.5522 19.5523 19.9999 19 19.9999H12.4286C11.8763 19.9999 11.4286 19.5522 11.4286 18.9999V11.9999ZM13.4286 17.9999V12.9999H18V17.9999H13.4286Z" />
</svg>