<svg xmlns="http://www.w3.org/2000/svg" width="20" height="20" viewBox="0 0 20 20" fill="none">
<path d="M6 0.5C4.89543 0.5 4 1.39543 4 2.5V3.5C4 4.05228 4.44772 4.5 5 4.5C5.55228 4.5 6 4.05228 6 3.5V2.5H18V14.5H17C16.4477 14.5 16 14.9477 16 15.5C16 16.0523 16.4477 16.5 17 16.5H18C19.1046 16.5 20 15.6046 20 14.5V2.5C20 1.39543 19.1046 0.5 18 0.5H6Z" fill="#019CB0"/>
<path fill-rule="evenodd" clip-rule="evenodd" d="M0 6.5C0 5.94772 0.447715 5.5 1 5.5H13C13.5523 5.5 14 5.94772 14 6.5V18.5C14 19.0523 13.5523 19.5 13 19.5H1C0.447716 19.5 0 19.0523 0 18.5V6.5ZM2 17.5V7.5H12V17.5H2Z" fill="#019CB0"/>
</svg>