<svg xmlns="http://www.w3.org/2000/svg" width="20" height="20" viewBox="0 0 20 20" fill="none">
<path fill-rule="evenodd" clip-rule="evenodd" d="M19.6917 1.79695C20.1028 1.38588 20.1028 0.719387 19.6917 0.308309C19.2806 -0.10277 18.6141 -0.10277 18.203 0.308309L10 8.51135L1.79695 0.308309C1.38588 -0.10277 0.719387 -0.10277 0.308309 0.308309C-0.102769 0.719387 -0.102769 1.38588 0.308309 1.79695L8.51135 10L0.308308 18.203C-0.102769 18.6141 -0.102769 19.2806 0.308308 19.6917C0.719388 20.1028 1.38588 20.1028 1.79696 19.6917L10 11.4886L18.203 19.6917C18.6141 20.1028 19.2806 20.1028 19.6917 19.6917C20.1028 19.2806 20.1028 18.6141 19.6917 18.203L11.4886 10L19.6917 1.79695Z" fill="#019CB0"/>
</svg>