<svg xmlns="http://www.w3.org/2000/svg" width="20" height="20" viewBox="0 0 20 20" fill="none">
<path d="M6.31579 1.11111C6.31579 0.497461 6.78707 0 7.36842 0H12.1053C12.6866 0 13.1579 0.497461 13.1579 1.11111C13.1579 1.72476 12.6866 2.22222 12.1053 2.22222H7.36842C6.78707 2.22222 6.31579 1.72476 6.31579 1.11111Z" fill="#019CB0"/>
<path fill-rule="evenodd" clip-rule="evenodd" d="M0 3.88889C0 3.27524 0.471279 2.77778 1.05263 2.77778H18.9474C19.5287 2.77778 20 3.27524 20 3.88889C20 4.50254 19.5287 5 18.9474 5H16.708V18.8889C16.708 19.5025 16.2367 20 15.6553 20H4.21053C3.62917 20 3.15789 19.5025 3.15789 18.8889V5H1.05263C0.471279 5 0 4.50254 0 3.88889ZM8.94737 8.88889C8.94737 8.27524 8.47609 7.77778 7.89474 7.77778C7.31338 7.77778 6.84211 8.27524 6.84211 8.88889V13.8889C6.84211 14.5025 7.31338 15 7.89474 15C8.47609 15 8.94737 14.5025 8.94737 13.8889V8.88889ZM12.1053 7.77778C12.6866 7.77778 13.1579 8.27524 13.1579 8.88889V13.8889C13.1579 14.5025 12.6866 15 12.1053 15C11.5239 15 11.0526 14.5025 11.0526 13.8889V8.88889C11.0526 8.27524 11.5239 7.77778 12.1053 7.77778Z" fill="#019CB0"/>
</svg>