<svg xmlns="http://www.w3.org/2000/svg" width="20" height="14" viewBox="0 0 20 14" fill="none">
<path d="M1 0C0.447716 0 0 0.510302 0 1.13979C0 1.76929 0.447716 2.27959 1 2.27959H13C13.5523 2.27959 14 1.76929 14 1.13979C14 0.510302 13.5523 0 13 0H1Z" fill="#019CB0"/>
<path d="M1 5.64762C0.447715 5.64762 0 6.15793 0 6.78742C0 7.41691 0.447715 7.92721 1 7.92721H10C10.5523 7.92721 11 7.41691 11 6.78742C11 6.15793 10.5523 5.64762 10 5.64762H1Z" fill="#019CB0"/>
<path d="M1.00002 11.2952C0.447733 11.2952 1.76668e-05 11.8055 1.76668e-05 12.435C1.76668e-05 13.0645 0.447733 13.5748 1.00002 13.5748H7.00002C7.55231 13.5748 8.00002 13.0645 8.00002 12.435C8.00002 11.8055 7.55231 11.2952 7.00002 11.2952H1.00002Z" fill="#019CB0"/>
<path d="M15.725 14L19.7218 9.68C20.0928 9.279 20.0927 8.62885 19.7217 8.22785C19.3507 7.82685 18.7492 7.82685 18.3782 8.22785L16.675 10.0689V3.30638C16.675 2.73928 16.2497 2.27956 15.725 2.27956C15.2003 2.27956 14.775 2.73928 14.775 3.30638L14.775 10.0689L13.0717 8.22788C12.7007 7.82688 12.0992 7.82688 11.7282 8.22788C11.3572 8.62888 11.3572 9.27903 11.7282 9.68003L15.725 14Z" fill="#019CB0"/>
</svg>