<svg xmlns="http://www.w3.org/2000/svg" width="18" height="20" viewBox="0 0 18 20" >
<path fill-rule="evenodd" clip-rule="evenodd" d="M14.3187 0.489503C13.5424 -0.180665 12.3667 -0.16039 11.6154 0.536118L1.54105 9.87636C1.23602 10.1592 1.03109 10.5285 0.955654 10.9315L0.273842 14.5737C0.0244974 15.9057 1.22242 17.0693 2.59382 16.8271L6.35636 16.1626C6.75565 16.0921 7.12331 15.905 7.41028 15.6263L17.4156 5.90837C18.2274 5.11993 18.1884 3.83041 17.3303 3.08963L14.3187 0.489503ZM12.9931 1.93793L16.0048 4.53805L5.99944 14.256L2.2369 14.9204L2.91871 11.2782L12.9931 1.93793Z" />
<path d="M0.99762 18.0621C0.446649 18.0621 0 18.4959 0 19.031C0 19.5662 0.446649 20 0.99762 20H16.9595C17.5105 20 17.9572 19.5662 17.9572 19.031C17.9572 18.4959 17.5105 18.0621 16.9595 18.0621H0.99762Z" />
</svg>