<svg xmlns="http://www.w3.org/2000/svg" width="20" height="18" viewBox="0 0 20 18" fill="none">
<path fill-rule="evenodd" clip-rule="evenodd" d="M10 1.8164L9.22348 1.2101C6.95276 -0.562827 3.71083 -0.36772 1.67084 1.66464C-0.556949 3.88409 -0.556947 7.48255 1.67084 9.702L10 18L18.3292 9.70201C20.5569 7.48256 20.5569 3.8841 18.3292 1.66465C16.2892 -0.367707 13.0472 -0.562814 10.7765 1.21011L10 1.8164ZM10 15.102L16.8747 8.25299C18.2992 6.83381 18.2992 4.53285 16.8747 3.11367C15.5703 1.81412 13.4973 1.68937 12.0453 2.82303L10 4.41996L7.95468 2.82301C6.50271 1.68935 4.42973 1.81411 3.1253 3.11366C1.70079 4.53284 1.70079 6.8338 3.12531 8.25299L10 15.102Z" fill="white"/>
</svg>