<svg xmlns="http://www.w3.org/2000/svg" width="20" height="20" viewBox="0 0 20 20" fill="none">
<path d="M2.44586 7.31464C2.64547 4.87897 5.11063 2.70903 8.26774 2.03359C11.0367 1.44119 14.0869 2.06781 16.0844 4.60851C15.5487 4.61106 15.1151 5.01953 15.1151 5.52304C15.1151 6.02812 15.5514 6.43758 16.0895 6.43758H19.0125V3.23668C19.0125 2.73159 18.5763 2.32214 18.0382 2.32214C17.6233 2.32214 17.2691 2.56547 17.1285 2.90836C14.6108 0.208734 10.9989 -0.426724 7.83468 0.250245C4.17138 1.03398 0.790482 3.66539 0.502917 7.17436C0.461646 7.67796 0.863133 8.11761 1.39966 8.15635C1.93619 8.19509 2.40459 7.81824 2.44586 7.31464Z" fill="#019CB0"/>
<path d="M17.584 12.9533C16.7195 15.996 14.3788 17.5993 11.6351 18.0433C9.14483 18.4464 6.34251 17.8824 4.11401 16.5199C4.55428 16.4319 4.88454 16.0648 4.88454 15.6254C4.88454 15.1203 4.44832 14.7108 3.9102 14.7108H0.5V17.9117C0.5 18.4168 0.936228 18.8263 1.47434 18.8263C2.01246 18.8263 2.44869 18.4168 2.44869 17.9117V17.6599C5.1659 19.5497 8.74658 20.3669 11.9663 19.8458C15.3644 19.2958 18.3826 17.2409 19.4669 13.4246C19.6055 12.9365 19.2964 12.4354 18.7765 12.3053C18.2565 12.1751 17.7226 12.4653 17.584 12.9533Z" fill="#019CB0"/>
<path fill-rule="evenodd" clip-rule="evenodd" d="M5.37172 6.07967C5.37172 5.57458 5.80794 5.16512 6.34606 5.16512H13.6536C14.1917 5.16512 14.628 5.57458 14.628 6.07967C14.628 6.58475 14.1917 6.99421 13.6536 6.99421H13.644C13.5801 8.47893 13.2022 9.57334 12.6126 10.3333C12.5702 10.388 12.5268 10.4408 12.4825 10.4917C12.926 10.8471 13.2553 11.2892 13.4899 11.7295C13.91 12.5182 14.0793 13.3771 14.1262 13.9679C14.4255 14.1239 14.628 14.4237 14.628 14.7678C14.628 15.2729 14.1917 15.6824 13.6536 15.6824H6.34606C5.80794 15.6824 5.37172 15.2729 5.37172 14.7678C5.37172 14.2627 5.80794 13.8533 6.34606 13.8533H6.40811C6.48401 13.2663 6.64203 12.5686 6.94737 11.9179C7.15916 11.4665 7.45948 11.009 7.86959 10.6305C7.47612 10.252 7.18573 9.80238 6.97889 9.36785C6.58561 8.54169 6.41884 7.64147 6.36608 6.99421H6.34606C5.80794 6.99421 5.37172 6.58475 5.37172 6.07967ZM10.2434 9.73783C10.3948 9.73783 10.7197 9.66613 11.0373 9.25666C11.329 8.88072 11.6315 8.19009 11.6935 6.99421H8.32222C8.37308 7.46364 8.50095 8.08158 8.75805 8.62169C9.1083 9.35747 9.57491 9.73783 10.2434 9.73783ZM10.2434 11.5669C9.51839 11.5669 9.06036 11.9526 8.73077 12.6551C8.55167 13.0368 8.44047 13.4628 8.37523 13.8533H12.1549C12.0999 13.471 11.9777 12.9807 11.7469 12.5475C11.4223 11.9382 10.9692 11.5669 10.2434 11.5669Z" fill="#019CB0"/>
</svg>