<svg xmlns="http://www.w3.org/2000/svg" width="20" height="16" viewBox="0 0 20 16" fill="none">
<path d="M0 1.33333C0 0.596954 0.559644 0 1.25 0H18.75C19.4404 0 20 0.596954 20 1.33333C20 2.06971 19.4404 2.66667 18.75 2.66667H1.25C0.559644 2.66667 0 2.06971 0 1.33333Z" fill="#019CB0"/>
<path d="M0 8C0 7.26362 0.559644 6.66667 1.25 6.66667H18.75C19.4404 6.66667 20 7.26362 20 8C20 8.73638 19.4404 9.33333 18.75 9.33333H1.25C0.559644 9.33333 0 8.73638 0 8Z" fill="#019CB0"/>
<path d="M1.25 13.3333C0.559644 13.3333 0 13.9303 0 14.6667C0 15.403 0.559644 16 1.25 16H18.75C19.4404 16 20 15.403 20 14.6667C20 13.9303 19.4404 13.3333 18.75 13.3333H1.25Z" fill="#019CB0"/>
</svg>