<svg xmlns="http://www.w3.org/2000/svg" width="20" height="20" viewBox="0 0 20 20" fill="none">
<path fill-rule="evenodd" clip-rule="evenodd" d="M8 14C11.3137 14 14 11.3137 14 8C14 4.68629 11.3137 2 8 2C4.68629 2 2 4.68629 2 8C2 11.3137 4.68629 14 8 14ZM8 16C12.4183 16 16 12.4183 16 8C16 3.58172 12.4183 0 8 0C3.58172 0 0 3.58172 0 8C0 12.4183 3.58172 16 8 16ZM18.2929 19.7071L14.2929 15.7071L15.7071 14.2929L19.7071 18.2929C20.0976 18.6834 20.0976 19.3166 19.7071 19.7071C19.3166 20.0976 18.6834 20.0976 18.2929 19.7071ZM6.3 6.10003C6.78578 5.45232 7.63522 5.15875 8.53154 5.30028C9.42152 5.4408 10.2204 5.99357 10.5715 6.87142C10.7766 7.3842 11.3586 7.63362 11.8714 7.42851C12.3842 7.2234 12.6336 6.64143 12.4285 6.12864C11.7796 4.50646 10.3285 3.55922 8.84346 3.32475C7.36478 3.09128 5.71422 3.54772 4.7 4.90003C4.36863 5.34186 4.45817 5.96866 4.9 6.30003C5.34183 6.6314 5.96863 6.54185 6.3 6.10003Z" fill="#019CB0"/>
</svg>