<svg xmlns="http://www.w3.org/2000/svg" width="20" height="14" viewBox="0 0 20 14" fill="none">
<path fill-rule="evenodd" clip-rule="evenodd" d="M1.19436 0.0244258C0.86839 -0.0494609 0.512549 0.0445697 0.266332 0.302573C0.0338438 0.54619 -0.0455797 0.878031 0.0247056 1.18187C0.00848174 1.26822 0 1.35727 0 1.44828V12.069C0 13.1354 0.873592 14 1.95122 14H18.0488C19.1264 14 20 13.1354 20 12.069V1.93103C20 1.39442 19.7788 0.908932 19.4218 0.558974C19.3787 0.46704 19.3201 0.380315 19.2459 0.302573C19.004 0.0491406 18.6564 -0.0460776 18.3352 0.0206568C18.2417 0.00704819 18.1461 5.53663e-09 18.0488 5.53663e-09H1.46342C1.3715 5.53663e-09 1.28157 0.00838556 1.19436 0.0244258ZM1.95122 3.20546V10.2173L5.59503 6.61123L1.95122 3.20546ZM2.83968 12.069H16.6697L12.4978 7.93785L11.0959 9.24824C10.3439 9.95111 9.16833 9.95111 8.41635 9.24824L7.01417 7.93766L2.83968 12.069ZM18.0488 10.7028V2.74952L13.917 6.61142L18.0488 10.7028ZM16.0827 1.93103L9.7561 7.84436L3.42949 1.93103H16.0827Z" fill="#019CB0"/>
</svg>