<svg xmlns="http://www.w3.org/2000/svg" width="20" height="6" viewBox="0 0 20 6" fill="none">
<path d="M4.6752 3C4.6752 4.38071 3.62862 5.5 2.3376 5.5C1.04658 5.5 0 4.38071 0 3C0 1.61929 1.04658 0.5 2.3376 0.5C3.62862 0.5 4.6752 1.61929 4.6752 3Z" fill="#019CB0"/>
<path d="M12.3794 3C12.3794 4.38071 11.3328 5.5 10.0418 5.5C8.75075 5.5 7.70417 4.38071 7.70417 3C7.70417 1.61929 8.75075 0.5 10.0418 0.5C11.3328 0.5 12.3794 1.61929 12.3794 3Z" fill="#019CB0"/>
<path d="M17.6624 5.5C18.9534 5.5 20 4.38071 20 3C20 1.61929 18.9534 0.5 17.6624 0.5C16.3714 0.5 15.3248 1.61929 15.3248 3C15.3248 4.38071 16.3714 5.5 17.6624 5.5Z" fill="#019CB0"/>
</svg>