<svg xmlns="http://www.w3.org/2000/svg" width="20" height="20" viewBox="0 0 20 20" fill="none">
<path d="M10.9138 5.78947C10.9138 6.37082 10.4497 6.8421 9.87729 6.8421C9.30485 6.8421 8.84079 6.37082 8.84079 5.78947C8.84079 5.20812 9.30485 4.73684 9.87729 4.73684C10.4497 4.73684 10.9138 5.20812 10.9138 5.78947Z" fill="#019CB0"/>
<path d="M8.84079 7.36842C8.26834 7.36842 7.80428 7.8397 7.80428 8.42105C7.80428 9.0024 8.26834 9.47368 8.84079 9.47368V12.6316H8.32254C7.75009 12.6316 7.28603 13.1029 7.28603 13.6842C7.28603 14.2656 7.75009 14.7368 8.32254 14.7368H11.4321C12.0045 14.7368 12.4686 14.2656 12.4686 13.6842C12.4686 13.1029 12.0045 12.6316 11.4321 12.6316H10.9138V7.36842H8.84079Z" fill="#019CB0"/>
<path fill-rule="evenodd" clip-rule="evenodd" d="M0.0335851 11.1334C-0.423609 5.09653 3.83502 0 9.87724 0C14.3255 0 17.5625 2.33729 18.9878 5.70252C20.3266 8.86387 20.0156 12.8022 17.8385 16.3414L20 20H8.32254C6.35224 20 4.35273 18.7074 2.87555 17.0997C1.37912 15.4711 0.196404 13.2832 0.0335851 11.1334ZM9.87724 2.10526C5.13579 2.10526 1.72859 6.06135 2.10049 10.9719C2.21669 12.5062 3.10701 14.2658 4.3912 15.6634C5.69466 17.0821 7.18339 17.8947 8.32254 17.8947H16.3387L15.3817 16.275L15.7624 15.7166C17.9165 12.5567 18.1794 9.12214 17.0834 6.53432C16.001 3.9785 13.5373 2.10526 9.87724 2.10526Z" fill="#019CB0"/>
</svg>