<svg xmlns="http://www.w3.org/2000/svg" width="20" height="16" viewBox="0 0 20 16" >
<path d="M7 9.5C7 8.94771 7.44772 8.5 8 8.5H9V7.5C9 6.94772 9.44771 6.5 10 6.5C10.5523 6.5 11 6.94772 11 7.5V8.5H12C12.5523 8.5 13 8.94771 13 9.5C13 10.0523 12.5523 10.5 12 10.5H11V11.5C11 12.0523 10.5523 12.5 10 12.5C9.44771 12.5 9 12.0523 9 11.5V10.5H8C7.44772 10.5 7 10.0523 7 9.5Z" />
<path fill-rule="evenodd" clip-rule="evenodd" d="M0 2C0 0.895431 0.89543 0 2 0H7.93381C8.63634 0 9.28735 0.368598 9.6488 0.971009L10.5662 2.5H18C19.1046 2.5 20 3.39543 20 4.5V14C20 15.1046 19.1046 16 18 16H2C0.89543 16 0 15.1046 0 14V2ZM7.93381 2H2V14H18V4.5H10.5662C9.86367 4.5 9.21265 4.1314 8.8512 3.52899L7.93381 2Z" />
</svg>