<svg xmlns="http://www.w3.org/2000/svg" width="20" height="20" viewBox="0 0 20 20" >
<path fill-rule="evenodd" clip-rule="evenodd" d="M7.55882 2.3564C8.14706 2.04429 8.85294 2.04429 9.44118 2.3564L17 6.36702V14.7866C17 15.5596 16.5499 16.2627 15.8458 16.5896L8.5 20L1.15423 16.5896C0.45008 16.2627 0 15.5596 0 14.7866V6.36702L7.55882 2.3564ZM2 8.43336L7.5 10.622V17.34L2 14.7866V8.43336ZM9.5 17.34L15 14.7866V8.43336L9.5 10.622V17.34ZM8.5 8.877L13.6318 6.83487L8.5 4.11202L3.36825 6.83487L8.5 8.877Z" />
<path d="M20 4.97426C20 7.72147 17.7614 9.94852 15 9.94852C12.2386 9.94852 10 7.72147 10 4.97426C10 2.22705 12.2386 0 15 0C17.7614 0 20 2.22705 20 4.97426Z" fill="white"/>
<path fill-rule="evenodd" clip-rule="evenodd" d="M15 7.95881C16.6569 7.95881 18 6.62258 18 4.97426C18 3.32593 16.6569 1.9897 15 1.9897C13.3431 1.9897 12 3.32593 12 4.97426C12 6.62258 13.3431 7.95881 15 7.95881ZM15 9.94852C17.7614 9.94852 20 7.72147 20 4.97426C20 2.22705 17.7614 0 15 0C12.2386 0 10 2.22705 10 4.97426C10 7.72147 12.2386 9.94852 15 9.94852Z" />
<path fill-rule="evenodd" clip-rule="evenodd" d="M12 4.97428C12 4.42484 12.4477 3.97943 13 3.97943H17C17.5523 3.97943 18 4.42484 18 4.97428C18 5.52372 17.5523 5.96913 17 5.96913H13C12.4477 5.96913 12 5.52372 12 4.97428Z" />
<path fill-rule="evenodd" clip-rule="evenodd" d="M15 1.98969C15.5523 1.98969 16 2.4351 16 2.98454L16 6.96394C16 7.51339 15.5523 7.9588 15 7.9588C14.4477 7.9588 14 7.51339 14 6.96394L14 2.98454C14 2.4351 14.4477 1.98968 15 1.98969Z" />
</svg>