<svg xmlns="http://www.w3.org/2000/svg" width="20" height="18" viewBox="0 0 20 18" fill="none">
<path d="M9.98595 0.496778C9.98595 0.216041 10.1998 -0.0128042 10.4632 0.000556843C12.2256 0.0899714 13.9348 0.673235 15.4178 1.69122C15.6394 1.84334 15.6885 2.16194 15.5352 2.39038L14.0928 4.54083C13.9395 4.76927 13.6422 4.82044 13.4171 4.67424C12.5218 4.09266 11.5089 3.74701 10.4629 3.66617C10.2 3.64585 9.98595 3.42019 9.98595 3.13945V0.496778Z" fill="#019CB0"/>
<path d="M3.44961 2.56951C3.24971 2.75256 3.24209 3.07532 3.42331 3.27922L5.12922 5.19862C5.31044 5.40252 5.61157 5.40977 5.81567 5.23207C6.62755 4.52521 7.58638 4.03486 8.61204 3.80199C8.86989 3.74345 9.05282 3.48866 9.01665 3.21057L8.67619 0.592887C8.64002 0.314804 8.39867 0.119366 8.13953 0.171071C6.40534 0.517086 4.78736 1.34453 3.44961 2.56951Z" fill="#019CB0"/>
<path d="M0.46193 9.95074C0.198931 9.93107 -0.000465842 9.68784 0.0305057 9.40905C0.237774 7.54331 0.903966 5.76857 1.96155 4.26475C2.11959 4.04003 2.42149 4.01017 2.62477 4.18895L4.53825 5.87187C4.74152 6.05066 4.76862 6.37008 4.61588 6.5989C4.00831 7.5091 3.61352 8.56083 3.46449 9.6662C3.42703 9.94408 3.20062 10.1556 2.93762 10.1359L0.46193 9.95074Z" fill="#019CB0"/>
<path d="M3.23489 17.8519C3.04846 18.0504 2.74527 18.0512 2.56792 17.8434C1.09962 16.1236 0.198444 13.9396 0.00186791 11.6248C-0.0218751 11.3452 0.18374 11.1079 0.447148 11.096L2.92669 10.9834C3.1901 10.9715 3.41095 11.1896 3.4412 11.4685C3.59301 12.8676 4.13711 14.1862 5.00228 15.2516C5.17473 15.464 5.17621 15.7847 4.98978 15.9832L3.23489 17.8519Z" fill="#019CB0"/>
<path d="M17.404 3.48287C17.2267 3.27514 16.9235 3.27591 16.737 3.47442L14.9821 5.34307C14.7957 5.54159 14.7972 5.8623 14.9696 6.07466C15.6556 6.91938 16.1423 7.92647 16.3891 9.0118C16.4512 9.28465 16.6954 9.47234 16.9555 9.42619L19.4035 8.99171C19.6636 8.94555 19.8404 8.68328 19.7847 8.40887C19.4121 6.57249 18.5908 4.87307 17.404 3.48287Z" fill="#019CB0"/>
<path d="M19.5335 10.6632C19.7971 10.6632 20.012 10.8909 19.9995 11.1713C19.9155 13.048 19.3678 14.868 18.4117 16.4471C18.2689 16.683 17.9697 16.7354 17.7551 16.5722L15.7356 15.0362C15.5211 14.873 15.473 14.5564 15.6103 14.3167C16.1565 13.3634 16.4811 12.2848 16.557 11.1711C16.5761 10.8911 16.788 10.6632 17.0517 10.6632H19.5335Z" fill="#019CB0"/>
<path d="M8.3983 12.0211L14.7597 16.2547L11.3422 9.78538C10.8392 8.83307 9.75152 8.42475 8.79879 8.83055L8.66089 8.88929C8.28441 9.04964 7.97628 9.35153 7.79494 9.73772C7.41322 10.5507 7.67448 11.5394 8.3983 12.0211Z" fill="#019CB0"/>
</svg>