<svg xmlns="http://www.w3.org/2000/svg" width="20" height="20" viewBox="0 0 20 20" >
<path d="M17.3539 1.18082C17.4495 0.62848 17.0621 0.106031 16.4887 0.0139435C15.9153 -0.0780823 15.3729 0.295096 15.2773 0.847436L14.8065 3.56879L9.25557 8.91575L10.7442 10.3497L16.2951 5.00271L19.1203 4.5492C19.6937 4.45711 20.0811 3.93472 19.9855 3.38232C19.8899 2.82998 19.3476 2.4568 18.7742 2.54883L17.0699 2.82249L17.3539 1.18082Z" />
<path d="M13.339 8.77663L13.3399 8.77855C13.9314 10.0368 14.0336 11.4578 13.628 12.7826C13.2221 14.1081 12.3349 15.2488 11.1283 15.9964C9.92177 16.7439 8.4763 17.0486 7.05586 16.8547C5.63542 16.6607 4.33477 15.9812 3.39138 14.9401C2.44797 13.8989 1.92478 12.5657 1.91729 11.1838C1.90981 9.80191 2.41853 8.46348 3.3506 7.41295C4.28266 6.36242 5.57588 5.66985 6.99414 5.4616C8.41214 5.25347 9.86054 5.54341 11.075 6.2785L12.096 4.71537C11.4891 4.34794 10.8379 4.06462 10.1615 3.86931C9.04982 3.54836 7.86979 3.465 6.7053 3.63593C4.83214 3.9109 3.12414 4.82565 1.89312 6.21315C0.662111 7.60066 -0.00978633 9.36833 0.000107733 11.1934C0.00998574 13.0186 0.701012 14.7794 1.94699 16.1545C2.13748 16.3647 2.33901 16.5637 2.55043 16.7511L1.54519 18.2922L4.21908 19.9105L5.25585 18.321C5.7492 18.4895 6.26182 18.6115 6.78683 18.6832C8.20932 18.8774 9.65082 18.6929 10.9594 18.162L12.5432 20L14.973 18.0571L13.5751 16.4349C14.452 15.5597 15.1046 14.4881 15.4669 13.3051C15.8001 12.2167 15.8738 11.0793 15.6939 9.97488C15.5845 9.30285 15.3811 8.64308 15.0852 8.01418L13.339 8.77663Z" />
<path d="M8.15995 9.11948L8.35382 7.63259C7.61138 7.54279 6.85814 7.67282 6.19432 8.00552L6.18265 8.0114C5.52415 8.34429 4.98553 8.86141 4.63781 9.49483C4.28801 10.132 4.14795 10.8567 4.23623 11.5725C4.32452 12.2882 4.63697 12.9611 5.13201 13.5016C5.62705 14.0421 6.28123 14.4246 7.00748 14.5981C7.73375 14.7717 8.49765 14.7282 9.19757 14.4733C9.89339 14.2199 10.4932 13.7695 10.9181 13.1817L10.9256 13.1712C11.351 12.5783 11.5789 11.8746 11.5789 11.1538H10.0232C10.0232 11.5702 9.89154 11.9767 9.64578 12.3193C9.40002 12.662 9.05178 12.9243 8.64741 13.0716C8.24304 13.2188 7.80171 13.244 7.38213 13.1437C6.96254 13.0434 6.58459 12.8225 6.2986 12.5102C6.01258 12.1979 5.83208 11.8092 5.78107 11.3957C5.73007 10.9822 5.81099 10.5635 6.01307 10.1953C6.21516 9.82722 6.52883 9.52707 6.91233 9.33491C7.29584 9.14269 7.73102 9.06756 8.15995 9.11948Z" />
</svg>