<svg xmlns="http://www.w3.org/2000/svg" width="20" height="20" viewBox="0 0 20 20" fill="none">
<path d="M11.3922 4.24644C11.5454 4.47621 11.4833 4.78664 11.2536 4.93982L8.34107 6.88147L7.51696 6.05736L5.2963 7.9079C5.08417 8.08468 4.76888 8.05602 4.5921 7.84388C4.41532 7.63174 4.44398 7.31646 4.65612 7.13968L7.57832 4.70451L8.46849 5.59468L10.6989 4.10777C10.9286 3.95459 11.2391 4.01668 11.3922 4.24644Z" fill="white"/>
<path d="M9.96192 8.14281H7.96192V14.1428H9.96192V8.14281Z" fill="white"/>
<path d="M4.79523 9.95238H6.79523V13.9524L4.79523 11.9524V9.95238Z" fill="white"/>
<path d="M13.1285 7.23803H11.1285V13.238L13.1285 11.5237V7.23803Z" fill="white"/>
<path fill-rule="evenodd" clip-rule="evenodd" d="M13.9248 15.3391C12.4599 16.4983 10.6084 17.1905 8.59524 17.1905C3.84822 17.1905 0 13.3422 0 8.59523C0 3.84822 3.84822 0 8.59524 0C13.3423 0 17.1905 3.84822 17.1905 8.59523C17.1905 10.6084 16.4984 12.46 15.3391 13.9249L19.7071 18.2929C20.0976 18.6834 20.0976 19.3166 19.7071 19.7071C19.3166 20.0976 18.6834 20.0976 18.2929 19.7071L13.9248 15.3391ZM15.1905 8.59523C15.1905 12.2377 12.2377 15.1905 8.59524 15.1905C4.95279 15.1905 2 12.2377 2 8.59523C2 4.95278 4.95279 2 8.59524 2C12.2377 2 15.1905 4.95278 15.1905 8.59523Z" fill="white"/>
</svg>