<svg xmlns="http://www.w3.org/2000/svg" width="20" height="20" viewBox="0 0 20 20" fill="none">
<path fill-rule="evenodd" clip-rule="evenodd" d="M6.91824 1.4843C7.15154 0.60898 7.94334 0 8.84814 0H11.1519C12.0567 0 12.8485 0.608979 13.0818 1.4843L13.3333 2.42776C14.0198 2.69807 14.6623 3.04955 15.2473 3.47016L16.3229 3.18154C17.1927 2.94816 18.1352 3.31039 18.6128 4.08637L19.7072 5.8643C20.1966 6.65948 20.0658 7.6857 19.3649 8.3214L18.6104 9.00569C18.6521 9.33192 18.6736 9.66377 18.6736 10C18.6736 10.3362 18.6521 10.6681 18.6104 10.9943L19.3648 11.6786C20.0658 12.3143 20.1966 13.3405 19.7071 14.1357L18.6128 15.9136C18.1351 16.6896 17.1927 17.0519 16.3229 16.8185L15.2472 16.5299C14.6623 16.9504 14.0198 17.3019 13.3334 17.5722L13.0819 18.5157C12.8486 19.391 12.0568 20 11.152 20H8.8482C7.9434 20 7.1516 19.391 6.9183 18.5157L6.66715 17.5734C5.97959 17.303 5.33604 16.9511 4.75028 16.5299L3.67659 16.8182C2.80667 17.0518 1.86419 16.6894 1.38666 15.9133L0.292647 14.1351C-0.196615 13.3399 -0.0656738 12.3138 0.635028 11.6781L1.30563 12.4191L1.3124 12.4266M1.30563 12.4191L0.635028 11.6781L1.38722 10.9957C1.34535 10.669 1.32383 10.3367 1.32383 10C1.32383 9.66312 1.34538 9.33063 1.38729 9.00379L0.635383 8.32122C-0.0649201 7.68549 -0.196057 6.65956 0.29287 5.86427L1.38624 4.0858C1.86357 3.30937 2.80612 2.94682 3.67621 3.18069L4.75096 3.46957C5.33652 3.04862 5.97982 2.69693 6.66708 2.42659L6.91824 1.4843M11.1519 2L8.84814 2L8.32165 3.97533L7.80378 4.1427C6.98197 4.40829 6.23497 4.81847 5.59691 5.33847L5.20079 5.66129L3.15833 5.1123C3.14794 5.10951 3.13162 5.10909 3.11315 5.11634C3.09469 5.12359 3.08724 5.13422 3.08724 5.13422L2.01671 6.87555L3.55464 8.27166L3.43975 8.8307C3.36207 9.20869 3.32128 9.59946 3.32128 10C3.32128 10.4004 3.36205 10.7911 3.43969 11.169L3.55458 11.7282L2.01642 13.1237L3.08731 14.8643C3.08731 14.8643 3.09486 14.875 3.11352 14.8824C3.13221 14.8897 3.14873 14.8893 3.15925 14.8865L5.20049 14.3384L5.59648 14.6612C6.23465 15.1814 6.98183 15.5917 7.80384 15.8573L8.32171 16.0247L8.8482 18H11.152L11.6787 16.0239L12.1962 15.8565C13.0172 15.5908 13.7635 15.1808 14.4009 14.6612L14.7969 14.3385L16.8399 14.8866C16.8505 14.8895 16.8671 14.8899 16.8859 14.8825C16.9047 14.8751 16.9123 14.8643 16.9123 14.8643L17.9834 13.1242L16.4431 11.7273L16.5579 11.168C16.6354 10.7905 16.6761 10.4001 16.6761 10C16.6761 9.59991 16.6354 9.20957 16.5579 8.83199L16.4431 8.27276L17.9834 6.8758L16.9124 5.13572C16.9124 5.13572 16.9047 5.12488 16.886 5.11751C16.8672 5.11012 16.8505 5.11054 16.8399 5.11338L14.7969 5.66157L14.401 5.33884C13.7635 4.8192 13.0172 4.4092 12.1962 4.14352L11.6786 3.97604L11.1519 2Z" fill="#019CB0"/>
<path fill-rule="evenodd" clip-rule="evenodd" d="M9.9972 12C11.1004 12 11.9946 11.1046 11.9946 10C11.9946 8.89543 11.1004 8 9.9972 8C8.89404 8 7.99975 8.89543 7.99975 10C7.99975 11.1046 8.89404 12 9.9972 12ZM9.9972 14C12.2035 14 13.9921 12.2091 13.9921 10C13.9921 7.79086 12.2035 6 9.9972 6C7.79088 6 6.0023 7.79086 6.0023 10C6.0023 12.2091 7.79088 14 9.9972 14Z" fill="#019CB0"/>
</svg>