<svg xmlns="http://www.w3.org/2000/svg" width="18" height="18" viewBox="0 0 18 18" fill="none">
<path d="M1.94595 0C0.87123 0 0 0.895431 0 2V16C0 17.1046 0.87123 18 1.94595 18H16.0541C17.1288 18 18 17.1046 18 16V10C18 9.44771 17.5644 9 17.027 9C16.4897 9 16.0541 9.44771 16.0541 10V16H1.94595V2H8.75676C9.29412 2 9.72973 1.55228 9.72973 1C9.72973 0.447715 9.29412 0 8.75676 0H1.94595Z" fill="#019CB0"/>
<path d="M12.1622 0C11.6248 0 11.1892 0.447715 11.1892 1C11.1892 1.55228 11.6248 2 12.1622 2H14.6781L8.55525 8.29289C8.17528 8.68342 8.17528 9.31658 8.55525 9.70711C8.93522 10.0976 9.55127 10.0976 9.93124 9.70711L16.0541 3.41421V6C16.0541 6.55228 16.4897 7 17.027 7C17.5644 7 18 6.55228 18 6V0H12.1622Z" fill="#019CB0"/>
</svg>