<svg xmlns="http://www.w3.org/2000/svg" width="18" height="18" viewBox="0 0 18 18" >
  <path fill-rule="evenodd" clip-rule="evenodd" d="M3.80385 18H14.1961L14.1961 7.81579H18L9 0L0 7.81579L3.80385 7.81579L3.80385 18ZM9.46448 15.6255V16.5789H8.52848V15.6727C7.99594 15.6084 7.34841 15.3745 6.90448 14.9709L7.52848 14.0109C8.00048 14.3709 8.40048 14.5389 8.81648 14.5389C9.31248 14.5389 9.52848 14.3469 9.52848 13.9549C9.52848 13.5867 9.10192 13.3697 8.60906 13.119C7.93481 12.7759 7.13648 12.3698 7.13648 11.4269C7.13648 10.5114 7.65769 9.88472 8.52848 9.7091V8.76295H9.46448V9.68914C10.0464 9.77905 10.4704 10.0626 10.8245 10.4429L10.1205 11.2589C9.79248 10.9629 9.50448 10.8109 9.13648 10.8109C8.71248 10.8109 8.48848 10.9629 8.48848 11.3629C8.48848 11.6915 8.88539 11.8799 9.35638 12.1034C10.0436 12.4295 10.8885 12.8304 10.8885 13.8509C10.8885 14.7333 10.4153 15.4176 9.46448 15.6255Z" />
</svg>