<svg xmlns="http://www.w3.org/2000/svg" width="18" height="18" viewBox="0 0 18 18" fill="none">
<path fill-rule="evenodd" clip-rule="evenodd" d="M3.80385 0H14.1962V10.1842H18L9 18L0 10.1842H3.80385V0ZM6.75111 7.87137C7.21246 8.2537 7.88539 8.47531 8.43882 8.53618V9.39474H9.41154V8.4915C10.3997 8.29452 10.8914 7.64623 10.8914 6.81032C10.8914 5.8435 10.0133 5.46366 9.2992 5.15473C8.80973 4.94299 8.39725 4.76456 8.39725 4.45326C8.39725 4.07432 8.63003 3.93032 9.07067 3.93032C9.4531 3.93032 9.7524 4.07432 10.0933 4.35474L10.8249 3.58168C10.4569 3.22138 10.0163 2.95273 9.41154 2.86755V1.9901H8.43882V2.88646C7.53386 3.05284 6.99221 3.6465 6.99221 4.51389C6.99221 5.4071 7.82186 5.79188 8.52256 6.11685C9.03475 6.3544 9.47805 6.55999 9.47805 6.90884C9.47805 7.28021 9.25357 7.46211 8.73811 7.46211C8.30579 7.46211 7.8901 7.30295 7.39959 6.96189L6.75111 7.87137Z" fill="#019CB0"/>
</svg>