<svg xmlns="http://www.w3.org/2000/svg" width="20" height="20" viewBox="0 0 20 20" fill="none">
<path fill-rule="evenodd" clip-rule="evenodd" d="M12.9337 5.88012C12.9337 7.55718 11.6206 8.91671 10.0009 8.91671C8.3812 8.91671 7.06816 7.55718 7.06816 5.88012C7.06816 4.20306 8.3812 2.84353 10.0009 2.84353C11.6206 2.84353 12.9337 4.20306 12.9337 5.88012ZM10.9785 5.88012C10.9785 6.43914 10.5408 6.89231 10.0009 6.89231C9.46101 6.89231 9.02333 6.43914 9.02333 5.88012C9.02333 5.3211 9.46101 4.86792 10.0009 4.86792C10.5408 4.86792 10.9785 5.3211 10.9785 5.88012Z" fill="#019CB0"/>
<path fill-rule="evenodd" clip-rule="evenodd" d="M8.97015 0.06691C12.5103 -0.364324 16.2441 1.26039 19.5757 5.77134L20 6.34587L19.6125 6.94766C17.5387 10.1686 14.3685 12.5451 10.8276 12.8976C7.22639 13.2561 3.49169 11.4991 0.403944 6.96991L0 6.3774L0.411992 5.79085C2.47039 2.86035 5.49989 0.48963 8.97015 0.06691ZM2.42414 6.39801C5.09178 10.0021 8.02632 11.1427 10.6405 10.8825C13.2528 10.6224 15.7632 8.94391 17.5789 6.42199C14.697 2.79866 11.759 1.76555 9.1986 2.07744C6.64484 2.38852 4.23662 4.06304 2.42414 6.39801Z" fill="#019CB0"/>
<path d="M4.33787 12.7559C4.71964 13.1511 4.71964 13.792 4.33787 14.1873L3.50086 15.054C3.87155 15.1978 4.1354 15.568 4.1354 16.0021C4.1354 16.5611 3.69772 17.0143 3.15782 17.0143H0.225064V13.9777C0.225064 13.4187 0.662744 12.9655 1.20265 12.9655C1.62185 12.9655 1.97942 13.2387 2.11835 13.6225L2.95535 12.7559C3.33712 12.3606 3.9561 12.3606 4.33787 12.7559Z" fill="#019CB0"/>
<path d="M10.0009 13.9777C10.5408 13.9777 10.9785 14.4309 10.9785 14.9899V16.2155C11.3388 16.0458 11.7782 16.1144 12.0747 16.4213C12.4564 16.8166 12.4564 17.4575 12.0747 17.8528L10.0009 20L7.92711 17.8528C7.54534 17.4575 7.54534 16.8166 7.92711 16.4213C8.22353 16.1144 8.66294 16.0458 9.0233 16.2155V14.9899C9.0233 14.4309 9.46098 13.9777 10.0009 13.9777Z" fill="#019CB0"/>
<path d="M17.0413 12.7555C16.6589 12.3609 16.04 12.3619 15.6588 12.7579C15.2777 13.1538 15.2787 13.7947 15.6611 14.1893L16.4994 15.0545C16.129 15.199 15.8657 15.5697 15.8664 16.0037C15.8673 16.5628 16.3056 17.0152 16.8456 17.0143L19.7783 17.0094L19.7735 13.9728C19.7727 13.4138 19.3343 12.9613 18.7944 12.9622C18.3752 12.9629 18.018 13.2367 17.8797 13.6208L17.0413 12.7555Z" fill="#019CB0"/>
</svg>