<svg xmlns="http://www.w3.org/2000/svg" width="20" height="18" viewBox="0 0 20 18" >
<path fill-rule="evenodd" clip-rule="evenodd" d="M0 4C0 3.44772 0.447715 3 1 3H19C19.5523 3 20 3.44772 20 4C20 4.55228 19.5523 5 19 5H1C0.447715 5 0 4.55228 0 4ZM0 9C0 8.44772 0.447715 8 1 8H19C19.5523 8 20 8.44772 20 9C20 9.55228 19.5523 10 19 10H1C0.447715 10 0 9.55228 0 9ZM1 13C0.447715 13 0 13.4477 0 14C0 14.5523 0.447715 15 1 15H19C19.5523 15 20 14.5523 20 14C20 13.4477 19.5523 13 19 13H1Z" />
<path fill-rule="evenodd" clip-rule="evenodd" d="M16.5 3.5C16.5 5.15685 15.1569 6.5 13.5 6.5C11.8431 6.5 10.5 5.15685 10.5 3.5C10.5 1.84315 11.8431 0.5 13.5 0.5C15.1569 0.5 16.5 1.84315 16.5 3.5ZM8.5 9.5C8.5 11.1569 7.15685 12.5 5.5 12.5C3.84315 12.5 2.5 11.1569 2.5 9.5C2.5 7.84315 3.84315 6.5 5.5 6.5C7.15685 6.5 8.5 7.84315 8.5 9.5ZM13.5 17.5C15.1569 17.5 16.5 16.1569 16.5 14.5C16.5 12.8431 15.1569 11.5 13.5 11.5C11.8431 11.5 10.5 12.8431 10.5 14.5C10.5 16.1569 11.8431 17.5 13.5 17.5Z" fill="white"/>
<path fill-rule="evenodd" clip-rule="evenodd" d="M13.5 4.5C14.0523 4.5 14.5 4.05228 14.5 3.5C14.5 2.94772 14.0523 2.5 13.5 2.5C12.9477 2.5 12.5 2.94772 12.5 3.5C12.5 4.05228 12.9477 4.5 13.5 4.5ZM13.5 6.5C15.1569 6.5 16.5 5.15685 16.5 3.5C16.5 1.84315 15.1569 0.5 13.5 0.5C11.8431 0.5 10.5 1.84315 10.5 3.5C10.5 5.15685 11.8431 6.5 13.5 6.5ZM5.5 10.5C6.05228 10.5 6.5 10.0523 6.5 9.5C6.5 8.94772 6.05228 8.5 5.5 8.5C4.94772 8.5 4.5 8.94772 4.5 9.5C4.5 10.0523 4.94772 10.5 5.5 10.5ZM5.5 12.5C7.15685 12.5 8.5 11.1569 8.5 9.5C8.5 7.84315 7.15685 6.5 5.5 6.5C3.84315 6.5 2.5 7.84315 2.5 9.5C2.5 11.1569 3.84315 12.5 5.5 12.5ZM14.5 14.5C14.5 15.0523 14.0523 15.5 13.5 15.5C12.9477 15.5 12.5 15.0523 12.5 14.5C12.5 13.9477 12.9477 13.5 13.5 13.5C14.0523 13.5 14.5 13.9477 14.5 14.5ZM16.5 14.5C16.5 16.1569 15.1569 17.5 13.5 17.5C11.8431 17.5 10.5 16.1569 10.5 14.5C10.5 12.8431 11.8431 11.5 13.5 11.5C15.1569 11.5 16.5 12.8431 16.5 14.5Z" />
</svg>