<svg xmlns="http://www.w3.org/2000/svg" width="20" height="18" viewBox="0 0 20 18" fill="none">
<path d="M6.34697 5.36557C6.93305 3.60299 8.68446 2.18311 10.4645 1.98464C11.3281 1.88836 12.1542 2.08549 12.8417 2.62583C13.5271 3.16455 14.1563 4.10878 14.5196 5.67006C14.7268 6.56079 15.4038 7.09203 16.0214 7.29165C16.5643 7.46714 17.1139 7.93715 17.5401 8.61974C17.9641 9.29873 18.2146 10.1085 18.2249 10.8548C18.235 11.5839 18.0201 12.2222 17.5396 12.6919C17.0465 13.1741 16.1619 13.5869 14.6486 13.5869H12.4302C11.9401 13.5869 11.5429 14.026 11.5429 14.5676C11.5429 15.1092 11.9401 15.5482 12.4302 15.5482H14.6486C16.4346 15.5482 17.7951 15.0608 18.7156 14.1609C19.6487 13.2486 20.016 12.0231 19.9995 10.8249C19.9832 9.64376 19.5983 8.46274 19.0008 7.50581C18.4056 6.55248 17.5476 5.74146 16.5196 5.40919C16.4291 5.37996 16.3537 5.33174 16.3033 5.28169C16.255 5.23368 16.2421 5.19753 16.2384 5.1816C15.7928 3.26683 14.963 1.88634 13.8702 1.0275C12.7796 0.170285 11.5083 -0.103008 10.2864 0.0332283C7.89539 0.299805 5.52317 2.15672 4.68113 4.68907C4.64562 4.79588 4.56489 4.86046 4.49903 4.87407C1.50206 5.49337 0.00450352 8.11032 1.01631e-05 10.5953C-0.00222049 11.829 0.362716 13.0655 1.12503 14.0059C1.90032 14.9622 3.03616 15.5482 4.44379 15.5482H7.99332C8.4834 15.5482 8.8807 15.1092 8.8807 14.5676C8.8807 14.026 8.4834 13.5869 7.99332 13.5869H4.44379C3.50946 13.5869 2.86524 13.2132 2.44689 12.6971C2.01556 12.1651 1.77328 11.4165 1.77476 10.5993C1.77768 8.9825 2.73126 7.23468 4.82523 6.80197C5.54094 6.65408 6.10824 6.08354 6.34697 5.36557Z" fill="#019CB0"/>
<path d="M12.519 10.8412L10.2118 8.92889L7.90463 10.8412C7.51256 11.1661 7.4331 11.7808 7.72715 12.2141C8.0212 12.6474 8.57741 12.7352 8.96948 12.4102L9.32443 12.116V17.0193C9.32443 17.5609 9.72172 18 10.2118 18C10.7019 18 11.0992 17.5609 11.0992 17.0193V12.116L11.4541 12.4102C11.8462 12.7352 12.4024 12.6474 12.6965 12.2141C12.9905 11.7808 12.911 11.1661 12.519 10.8412Z" fill="#019CB0"/>
</svg>