<svg xmlns="http://www.w3.org/2000/svg" width="172" height="205" viewBox="0 0 172 205" >
  <path d="M123.62 62.1216L131.281 59.6144L159.556 71.7323L160.81 72.7073V76.8859L159.556 78.1395L159.138 73.6823H151.756V77.8609L123.62 62.1216Z" fill="#F8F9F6"/>
  <path d="M151.756 77.8608L123.62 62.1215L111.084 77.8608L133.092 91.9286H138.245L153.845 87.1929L154.542 85.1036H153.845L151.756 77.8608Z" fill="#3BA8B0"/>
  <path d="M153.845 87.193L154.542 85.1037L156.074 83.8501L154.402 88.3073L149.388 91.093L138.245 93.043L133.092 92.6251L115.82 86.7751L116.238 97.5002L102.727 103.211L111.084 77.8608L133.092 91.9287H138.245L153.845 87.193Z" fill="#44AAAE"/>
  <path d="M138.245 93.0431L149.388 91.0931V94.7145L147.02 96.9431L116.238 97.5002L115.82 86.7752L133.092 92.6252L138.245 93.0431Z" fill="#071730"/>
  <path d="M84.6201 14.9037L91.0273 0.278687L92.4201 28.9716L98.688 29.9466L82.5308 47.218L84.6201 14.9037Z" fill="#061D39"/>
  <path d="M98.688 29.9466L82.5308 47.218L93.9523 62.6788L106.488 46.6609L98.688 29.9466Z" fill="#1C7086"/>
  <path d="M92.4202 28.9716L91.0273 0.278687L98.6881 29.9466L92.4202 28.9716Z" fill="#22516E"/>
  <path d="M91.0273 0.278687L98.6881 29.9466L106.488 46.6609L122.088 49.4466L97.5738 23.5394L92.1416 0.696544L91.0273 0.278687Z" fill="#399DA6"/>
  <path d="M106.488 46.6608L122.088 49.4465L131.281 59.6144L123.62 62.1216L122.924 61.7037L117.77 54.1823H112.756L108.299 58.2216L108.856 59.1966L93.9523 62.6787L106.488 46.6608Z" fill="#4DB0B5"/>
  <path d="M108.856 59.1966L93.9523 62.6787L111.084 77.8609L118.885 62.818H116.795L108.856 59.1966Z" fill="#C5DDD7"/>
  <path d="M111.084 77.8609L118.884 62.818L122.924 61.7037L123.62 62.1216L111.084 77.8609Z" fill="#5DB7B2"/>
  <path d="M108.299 58.2215L108.856 59.1965L116.934 62.818H118.606L122.924 61.7037L117.77 54.1823H112.756L108.299 58.2215Z" fill="#081B34"/>
  <path d="M88.938 0.278687H91.0273L84.6202 14.9037L80.8595 41.0895L74.1737 22.5644L88.938 0.278687Z" fill="#ABDFDF"/>
  <path d="M80.8595 41.0894L74.1738 22.5644L66.9309 28.4144L82.531 47.218L80.8595 41.0894Z" fill="#17506E"/>
  <path d="M82.531 47.2179L66.9309 28.4143L64.1452 58.0822L93.9524 62.6786L82.531 47.2179Z" fill="#2E93A0"/>
  <path d="M82.5309 47.218L80.8595 41.0894L84.6202 14.9037L82.5309 47.218Z" fill="#6BA9AA"/>
  <path d="M102.867 23.5394H97.5737L122.088 49.4465L127.242 45.9644L102.867 23.5394Z" fill="#DAFFFC"/>
  <path d="M122.088 49.4466L127.242 45.9644L131.281 59.6144L122.088 49.4466Z" fill="#BED5D3"/>
  <path d="M116.517 2.78571L103.006 23.5393L110.527 30.6429L109.413 22.425L117.492 2.78571H116.517Z" fill="#ABDFDF"/>
  <path d="M109.413 22.425L117.492 2.78571L118.188 3.34285L115.681 35.2393L110.527 30.6429L109.413 22.425Z" fill="#061D39"/>
  <path d="M118.606 3.6214L119.163 38.4429L121.67 40.8107L119.302 3.89997L118.606 3.6214Z" fill="#6AADB8"/>
  <path d="M115.681 35.2394L118.188 3.34296L118.606 3.62153L119.163 38.443L115.681 35.2394Z" fill="#22516E"/>
  <path d="M151.756 77.7216V73.6823H159.138L159.556 78.1395L156.074 83.8502L154.542 85.1038H153.845L151.756 77.7216Z" fill="#0A2748"/>
  <path d="M111.085 77.8609L93.9524 62.6787L80.1631 81.6216L111.085 77.8609Z" fill="#3FA5AF"/>
  <path d="M93.9524 62.6786L64.1452 58.0822L80.1631 81.6215L93.9524 62.6786Z" fill="#1F6C84"/>
  <path d="M48.1273 72.9859L64.1452 58.0823L66.0952 37.6072L55.2309 49.168L52.4452 56.2716L49.2416 59.3358L48.1273 72.9859Z" fill="#57B8B8"/>
  <path d="M48.1273 72.9858L64.1451 58.0822L73.4773 101.679L47.988 79.393L48.1273 72.9858Z" fill="#5EBDBD"/>
  <path d="M80.1631 81.6215L64.1452 58.0822L73.4774 101.679L88.2417 119.925L80.1631 81.6215Z" fill="#103E5D"/>
  <path d="M111.085 77.8608L80.1631 81.6216L102.727 103.211L111.085 77.8608Z" fill="#57B8BB"/>
  <path d="M149.945 90.8145L149.388 91.093V94.7145L147.02 96.943L144.792 100.007H146.045L150.224 95.6895L149.945 90.8145Z" fill="#D9D9D9"/>
  <path d="M116.238 97.5001L102.727 103.211L114.845 113.936C114.845 113.936 114.984 113.518 116.238 106.972C117.504 100.36 129.192 98.2894 134.763 98.0573H146.185L147.02 96.943L116.238 97.5001Z" fill="#184866"/>
  <path d="M134.763 98.0573H146.185L144.792 100.007L132.535 100.704C121.67 101.679 116.934 105.467 115.263 114.493L114.845 113.936C114.985 113.379 114.789 113.546 116.238 106.972C117.687 100.397 126.545 98.6144 134.763 98.0573Z" fill="#276D82"/>
  <path d="M102.727 103.211L80.1631 81.6216L88.2417 119.925L114.845 137.475L115.542 126.193L102.727 103.211Z" fill="#19536D"/>
  <path d="M73.4773 101.679L47.988 79.3931L61.638 129.675L69.2987 136.918L76.263 143.465L73.4773 101.679Z" fill="#1A647B"/>
  <path d="M88.2416 119.925L73.4773 101.679L76.263 143.464L78.6309 145.972L88.2416 119.925Z" fill="#418794"/>
  <path d="M42.8344 131.207L47.9879 79.3931L32.5272 96.1074L29.8808 109.34L42.8344 131.207Z" fill="#F9F8F8"/>
  <path d="M61.638 129.675L47.988 79.3931L42.8344 131.207L61.638 129.675Z" fill="#1A4D68"/>
  <path d="M121.809 122.711L115.263 114.493L114.845 113.936L102.727 103.211L115.542 126.193L114.845 137.475L121.809 122.711Z" fill="#5E9DA3"/>
  <path d="M114.845 137.475L88.2416 119.925L111.502 151.264L114.845 137.475Z" fill="#5E9CA1"/>
  <path d="M111.502 151.125L114.845 137.475L118.745 150.568L117.352 154.747V160.736L112.06 167.561L111.502 151.125Z" fill="#44919A"/>
  <path d="M78.6309 145.972L88.2416 119.925L92.838 157.393L90.3309 158.786L78.6309 145.972Z" fill="#256D83"/>
  <path d="M111.502 151.264L88.2416 119.925L92.8381 157.393L90.3309 158.786L78.6309 145.972L76.2631 143.464L69.1595 136.779L83.0881 185.529H94.6488L111.502 151.264Z" fill="#0B2B4B"/>
  <path d="M61.638 129.675L42.8344 131.207L55.3701 145.415L65.2594 156.697L83.088 185.529L69.1594 136.779L61.638 129.675Z" fill="#1C5F78"/>
  <path d="M46.5951 135.525L42.8344 131.207L65.2594 176.057L83.088 185.529L65.2594 156.557L53.1415 142.907L47.8487 136.779L47.2915 136.222L46.5951 135.525Z" fill="#0E3150"/>
  <path d="M42.8344 131.207L29.8808 109.34L20.9665 154.19L42.8344 131.207Z" fill="#164763"/>
  <path d="M20.9666 154.19L29.8809 109.34L14.6987 123.686L20.9666 154.19Z" fill="#D9E1DD"/>
  <path d="M20.9665 154.05L14.6986 123.686L6.06289 143.047L18.8772 157.393L20.9665 154.05Z" fill="#76ADAF"/>
  <path d="M20.9665 154.05L18.8772 157.532L31.1343 170.765L46.1772 151.404L65.2594 176.057L42.8344 131.207L20.9665 154.05Z" fill="#1A5670"/>
  <path d="M82.6702 185.111L65.538 176.197L85.4559 203.357L112.338 167.561L111.642 150.986L94.5095 185.111H82.6702Z" fill="#021930"/>
  <path fill-rule="evenodd" clip-rule="evenodd" d="M91.0274 0H88.9381L74.1738 22.2857L66.931 28.1358L66.0648 37.361L55.231 48.8893L52.4452 55.9929L49.2417 59.0572L48.1274 72.7072L48.1273 72.7073L47.988 79.1144L61.6381 129.397L47.988 79.1145L32.5273 95.8288L29.8809 109.061L29.8809 109.061L14.6988 123.407L6.06297 142.768L18.8773 157.114L20.9451 153.806L20.9453 153.807L18.8773 157.254L31.1344 170.486L46.1773 151.125L65.2595 175.779L65.5487 175.932L85.456 203.079L112.338 167.282L112.324 166.942L117.352 160.457V154.468L118.745 150.289L114.845 137.197L121.81 122.432L115.263 114.215L114.845 113.657L102.728 102.933L102.727 102.932L114.845 113.657L114.845 113.657L114.845 113.657L115.263 114.214C116.935 105.189 121.67 101.4 132.535 100.425L144.792 99.7287H146.045L150.224 95.4108L149.945 90.5358L149.388 90.8143L154.402 88.0286L156.074 83.5715L159.556 77.8609L159.138 73.4037L151.756 73.4036H159.138L159.556 77.8608L160.81 76.6072V72.4286L159.556 71.4536L131.281 59.3358L123.62 61.8429L151.756 77.5822V77.4433L153.844 84.8199L151.756 77.5822L123.62 61.8429L122.924 61.4251L117.77 53.9036L122.924 61.425L123.62 61.8429L131.281 59.3357L127.242 45.6857L127.242 45.6858L112.504 32.1276L115.681 34.9608L115.681 34.9609L119.163 38.1643L121.67 40.5322L119.302 3.62141L118.606 3.34284L118.188 3.06439L118.188 3.0643L117.492 2.50716H116.517L103.006 23.2608L108.253 28.2165L102.867 23.2608H97.5739L97.5738 23.2607L92.1417 0.417858L91.0274 0ZM91.0274 0L92.4203 28.6929L98.6881 29.6679L106.488 46.3822L106.488 46.3822L98.6881 29.6679L92.4202 28.6929L91.0274 0ZM108.856 58.918L116.935 62.5393H118.606L122.924 61.4251L118.885 62.5394L118.885 62.5395H116.795L108.856 58.918ZM108.856 58.918L93.9524 62.4L108.856 58.9179L108.856 58.918ZM149.388 90.8143L149.388 90.8145L138.245 92.7643L149.388 90.8143ZM111.507 150.976L111.507 150.969L111.503 150.984L111.507 150.976ZM46.5952 135.247L42.8395 130.934L47.0125 135.664L46.5952 135.247ZM53.1416 142.629L52.3878 141.756L55.3702 145.136L55.5888 145.385L53.1416 142.629ZM64.1453 57.8036L64.1452 57.8037L64.1453 57.8036L64.1474 57.7816L64.1453 57.8036ZM116.679 105.31C116.493 105.746 116.345 106.206 116.238 106.693L116.238 106.693C116.331 106.208 116.48 105.747 116.679 105.31ZM115.82 86.4967L115.82 86.4965L133.092 92.3465L115.82 86.4967ZM131.21 98.1047C132.392 97.9638 133.584 97.8586 134.763 97.7786C133.748 97.8209 132.531 97.9242 131.21 98.1047ZM144.794 99.725L146.185 97.7787L147.02 96.6645L144.794 99.725Z" fill="url(#paint0_linear_2_8590)"/>
  <path d="M30.8559 157.95L2.02368 128.282H0.212967V139.565L30.8559 170.904L45.7595 154.329L85.1774 204.054L123.76 152.657L141.588 170.625L171.117 138.868V128.143H168.192L140.474 157.95L122.785 138.868L85.1774 189.847L45.7595 138.868L30.8559 157.95Z" fill="url(#paint1_linear_2_8590)"/>
  <defs>
    <linearGradient id="paint0_linear_2_8590" x1="77.7952" y1="160.318" x2="82.8095" y2="101.4" gradientUnits="userSpaceOnUse">
      <stop/>
      <stop offset="1" stop-opacity="0"/>
    </linearGradient>
    <linearGradient id="paint1_linear_2_8590" x1="85.7345" y1="128.143" x2="85.6649" y2="204.054" gradientUnits="userSpaceOnUse">
      <stop stop-color="#B1ECFF"/>
      <stop offset="1" stop-color="#00707D"/>
    </linearGradient>
  </defs>
</svg>